<svg width="116" height="116" viewBox="0 0 116 116" fill="none" xmlns="http://www.w3.org/2000/svg">
<path d="M56.2339 1.32283C56.9861 -0.0923154 59.0139 -0.0923187 59.7661 1.32282L63.2517 7.88097C63.8919 9.08553 65.5236 9.3098 66.465 8.32264L71.5908 2.94809C72.6968 1.78835 74.6494 2.33545 74.9919 3.90104L76.5789 11.1564C76.8704 12.489 78.381 13.1452 79.5539 12.4487L85.9396 8.65631C87.3175 7.83798 89.0501 8.89161 88.9575 10.4915L88.5282 17.906C88.4493 19.2678 89.7269 20.3073 91.0442 19.953L98.2163 18.0241C99.7639 17.6079 101.148 19.0899 100.627 20.6055L98.2133 27.6292C97.77 28.9193 98.7198 30.2649 100.084 30.2791L107.51 30.3568C109.113 30.3735 110.046 32.174 109.135 33.4929L104.916 39.6049C104.141 40.7275 104.693 42.2794 106.002 42.6612L113.132 44.7396C114.671 45.1881 115.084 47.1735 113.851 48.1978L108.139 52.9448C107.09 53.8167 107.203 55.4599 108.361 56.1808L114.666 60.1058C116.026 60.9528 115.888 62.9759 114.425 63.6297L107.644 66.6597C106.398 67.2162 106.063 68.8288 106.984 69.8354L111.996 75.3159C113.078 76.4986 112.399 78.4093 110.813 78.6441L103.467 79.7323C102.117 79.9321 101.359 81.3945 101.974 82.6122L105.322 89.2418C106.044 90.6724 104.875 92.329 103.285 92.1274L95.9172 91.1931C94.5639 91.0215 93.4397 92.2252 93.7033 93.5636L95.1382 100.851C95.4479 102.423 93.8749 103.703 92.3983 103.08L85.5557 100.192C84.2989 99.6618 82.8917 100.518 82.7844 101.877L82.2001 109.281C82.074 110.879 80.2141 111.687 78.9604 110.689L73.1506 106.062C72.0835 105.212 70.4975 105.657 70.0273 106.937L67.4671 113.909C66.9147 115.413 64.9058 115.689 63.9679 114.39L59.6218 108.367C58.8235 107.261 57.1765 107.261 56.3782 108.367L52.0321 114.39C51.0942 115.689 49.0853 115.413 48.5329 113.909L45.9727 106.937C45.5025 105.657 43.9165 105.212 42.8494 106.062L37.0396 110.689C35.7859 111.687 33.926 110.879 33.7999 109.281L33.2156 101.877C33.1083 100.518 31.7011 99.6618 30.4443 100.192L23.6017 103.08C22.1251 103.703 20.5521 102.423 20.8618 100.851L22.2967 93.5636C22.5603 92.2252 21.4361 91.0215 20.0828 91.1931L12.7149 92.1274C11.125 92.329 9.95562 90.6724 10.678 89.2418L14.0257 82.6122C14.6406 81.3945 13.8829 79.9321 12.5335 79.7323L5.18673 78.6441C3.60142 78.4093 2.92234 76.4986 4.0039 75.3159L9.01612 69.8354C9.93674 68.8288 9.60164 67.2162 8.3562 66.6597L1.57547 63.6297C0.112302 62.9759 -0.0260857 60.9528 1.33443 60.1058L7.63943 56.1808C8.79748 55.4599 8.90988 53.8167 7.86078 52.9448L2.14897 48.1978C0.91645 47.1735 1.32902 45.1881 2.86759 44.7396L9.99774 42.6612C11.3074 42.2794 11.8589 40.7275 11.084 39.6049L6.86467 33.4929C5.95422 32.174 6.88716 30.3735 8.48967 30.3568L15.9162 30.2791C17.2802 30.2649 18.23 28.9193 17.7867 27.6292L15.3729 20.6055C14.852 19.0899 16.2361 17.6079 17.7837 18.0241L24.9557 19.953C26.2731 20.3073 27.5507 19.2678 27.4718 17.906L27.0425 10.4915C26.9499 8.89161 28.6825 7.83798 30.0604 8.65631L36.4461 12.4487C37.619 13.1452 39.1296 12.489 39.4211 11.1564L41.0081 3.90105C41.3506 2.33546 43.3032 1.78835 44.4092 2.94809L49.535 8.32264C50.4764 9.3098 52.1081 9.08553 52.7483 7.88097L56.2339 1.32283Z" fill="#C8F57A"/>
</svg>
