<svg width="120" height="120" viewBox="0 0 120 120" fill="none" xmlns="http://www.w3.org/2000/svg">
<g clip-path="url(#clip0_116_15)">
<circle cx="58.5" cy="61.5" r="48.5" fill="#C8F57A"/>
<rect x="32" y="5" width="13" height="111" rx="2" fill="#B4DE6B"/>
<path d="M62.2351 64.0158C60.364 65.5782 57.8557 63.0698 59.4181 61.1987L97.7586 15.2832C98.5119 14.3811 99.8769 14.3199 100.708 15.1509L108.283 22.7259C109.114 23.5569 109.053 24.922 108.151 25.6752L62.2351 64.0158Z" fill="#B4DE6B"/>
<path d="M57.2339 26.3228C57.9861 24.9077 60.0139 24.9077 60.7661 26.3228L61.8491 28.3606C62.4893 29.5652 64.1211 29.7895 65.0625 28.8023L66.6552 27.1323C67.7613 25.9725 69.7139 26.5196 70.0564 28.0852L70.5495 30.3397C70.841 31.6723 72.3517 32.3285 73.5245 31.6319L75.5088 30.4535C76.8867 29.6352 78.6193 30.6888 78.5267 32.2888L78.3932 34.5927C78.3144 35.9545 79.592 36.9939 80.9093 36.6396L83.1379 36.0403C84.6855 35.6241 86.0696 37.1061 85.5488 38.6217L84.7987 40.8042C84.3554 42.0942 85.3052 43.4398 86.6692 43.4541L88.9769 43.4782C90.5794 43.4949 91.5123 45.2954 90.6019 46.6143L89.2908 48.5135C88.5158 49.6361 89.0674 51.188 90.377 51.5698L92.5926 52.2156C94.1311 52.6641 94.5437 54.6495 93.3112 55.6738L91.5364 57.1489C90.4873 58.0208 90.5996 59.664 91.7577 60.3849L93.7169 61.6045C95.0774 62.4515 94.939 64.4746 93.4758 65.1284L91.3688 66.0699C90.1234 66.6264 89.7883 68.239 90.7089 69.2456L92.2664 70.9486C93.3479 72.1312 92.6688 74.042 91.0835 74.2768L88.8007 74.6149C87.4513 74.8148 86.6935 76.2771 87.3084 77.4948L88.3487 79.5548C89.071 80.9854 87.9016 82.6421 86.3118 82.4405L84.0223 82.1501C82.6691 81.9785 81.5449 83.1823 81.8084 84.5207L82.2543 86.7849C82.5639 88.3573 80.9909 89.6371 79.5144 89.014L77.3882 88.1168C76.1314 87.5864 74.7241 88.4422 74.6168 89.8021L74.4353 92.1027C74.3092 93.7003 72.4492 94.5082 71.1956 93.5099L69.3903 92.0723C68.3232 91.2225 66.7372 91.6669 66.267 92.9474L65.4715 95.1137C64.919 96.6181 62.9101 96.8942 61.9723 95.5947L60.6218 93.7233C59.8235 92.6172 58.1765 92.6172 57.3782 93.7233L56.0277 95.5947C55.0899 96.8942 53.081 96.6181 52.5285 95.1137L51.733 92.9474C51.2628 91.6669 49.6768 91.2225 48.6097 92.0723L46.8044 93.5099C45.5508 94.5082 43.6908 93.7003 43.5647 92.1027L43.3832 89.8021C43.2759 88.4422 41.8686 87.5864 40.6118 88.1168L38.4856 89.014C37.0091 89.6371 35.4361 88.3573 35.7457 86.7849L36.1916 84.5207C36.4551 83.1823 35.3309 81.9785 33.9777 82.1501L31.6882 82.4405C30.0984 82.6421 28.929 80.9854 29.6513 79.5548L30.6916 77.4948C31.3065 76.2771 30.5487 74.8148 29.1993 74.6149L26.9165 74.2768C25.3312 74.042 24.6521 72.1312 25.7336 70.9486L27.2911 69.2456C28.2117 68.239 27.8766 66.6264 26.6312 66.0699L24.5242 65.1284C23.061 64.4746 22.9226 62.4515 24.2831 61.6045L26.2423 60.3849C27.4004 59.664 27.5128 58.0208 26.4636 57.1489L24.6888 55.6738C23.4563 54.6495 23.8689 52.6641 25.4074 52.2156L27.623 51.5698C28.9326 51.188 29.4842 49.6361 28.7092 48.5135L27.3981 46.6143C26.4877 45.2954 27.4206 43.4949 29.0231 43.4782L31.3308 43.4541C32.6948 43.4398 33.6446 42.0942 33.2013 40.8042L32.4512 38.6217C31.9304 37.1061 33.3145 35.6241 34.8621 36.0403L37.0907 36.6396C38.408 36.9939 39.6856 35.9545 39.6068 34.5927L39.4733 32.2888C39.3807 30.6888 41.1133 29.6352 42.4912 30.4535L44.4755 31.6319C45.6483 32.3285 47.159 31.6723 47.4505 30.3397L47.9436 28.0852C48.2861 26.5196 50.2387 25.9725 51.3448 27.1323L52.9375 28.8023C53.8789 29.7895 55.5107 29.5652 56.1509 28.3606L57.2339 26.3228Z" fill="white"/>
<circle cx="59" cy="61" r="16" fill="#FFEF76"/>
<path d="M59.4183 66.2354C57.8559 64.3643 60.3643 61.8559 62.2354 63.4183L108.151 101.759C109.053 102.512 109.114 103.877 108.283 104.708L100.708 112.283C99.8772 113.114 98.5121 113.053 97.7588 112.151L59.4183 66.2354Z" fill="#B4DE6B"/>
</g>
<defs>
<clipPath id="clip0_116_15">
<rect width="120" height="120" fill="white"/>
</clipPath>
</defs>
</svg>
