<svg width="184" height="183" viewBox="0 0 184 183" fill="none" xmlns="http://www.w3.org/2000/svg">
<path d="M90.0148 1.32282C90.7669 -0.0923197 92.7948 -0.09232 93.5469 1.32282L100.746 14.867C101.386 16.0715 103.017 16.2958 103.959 15.3086L114.545 4.2089C115.651 3.04916 117.603 3.59626 117.946 5.16185L121.223 20.1459C121.515 21.4785 123.026 22.1347 124.198 21.4381L137.386 13.606C138.764 12.7877 140.497 13.8414 140.404 15.4413L139.518 30.7539C139.439 32.1158 140.716 33.1552 142.034 32.8009L156.846 28.8173C158.393 28.4011 159.777 29.8831 159.256 31.3987L154.271 45.9043C153.828 47.1943 154.778 48.5399 156.142 48.5542L171.479 48.7145C173.082 48.7313 174.015 50.5318 173.104 51.8507L164.39 64.4734C163.615 65.596 164.167 67.1479 165.477 67.5297L180.202 71.8221C181.741 72.2706 182.153 74.256 180.921 75.2803L169.125 85.084C168.075 85.9559 168.188 87.5991 169.346 88.32L182.367 96.4261C183.728 97.273 183.589 99.2962 182.126 99.95L168.122 106.208C166.877 106.764 166.542 108.377 167.462 109.383L177.814 120.702C178.895 121.884 178.216 123.795 176.631 124.03L161.458 126.277C160.109 126.477 159.351 127.94 159.966 129.157L166.88 142.849C167.602 144.279 166.433 145.936 164.843 145.735L149.626 143.805C148.273 143.633 147.149 144.837 147.413 146.175L150.376 161.225C150.686 162.797 149.113 164.077 147.636 163.454L133.505 157.49C132.248 156.96 130.841 157.816 130.733 159.176L129.527 174.467C129.401 176.064 127.541 176.872 126.287 175.874L114.288 166.319C113.221 165.469 111.635 165.913 111.165 167.194L105.878 181.592C105.325 183.097 103.316 183.373 102.378 182.073L93.4027 169.635C92.6044 168.529 90.9573 168.529 90.1591 169.635L81.1833 182.073C80.2454 183.373 78.2365 183.097 77.684 181.592L72.3968 167.194C71.9265 165.913 70.3406 165.469 69.2735 166.319L57.2748 175.874C56.0212 176.872 54.1612 176.064 54.0351 174.467L52.8285 159.176C52.7212 157.816 51.3139 156.96 50.0571 157.49L35.9255 163.454C34.449 164.077 32.876 162.797 33.1856 161.225L36.1491 146.175C36.4127 144.837 35.2885 143.633 33.9352 143.805L18.7188 145.735C17.1289 145.936 15.9595 144.279 16.6819 142.849L23.5957 129.157C24.2106 127.94 23.4529 126.477 22.1035 126.277L6.93072 124.03C5.34541 123.795 4.66633 121.884 5.74789 120.702L16.0993 109.383C17.0199 108.377 16.6848 106.764 15.4394 106.208L1.43559 99.95C-0.0275755 99.2962 -0.165959 97.273 1.19456 96.4261L14.2159 88.32C15.3739 87.5991 15.4863 85.9559 14.4372 85.084L2.64097 75.2803C1.40845 74.256 1.82102 72.2706 3.35959 71.8221L18.085 67.5297C19.3946 67.1479 19.9462 65.596 19.1712 64.4734L10.4574 51.8507C9.54698 50.5318 10.4799 48.7313 12.0824 48.7145L27.4199 48.5542C28.7839 48.5399 29.7338 47.1943 29.2904 45.9043L24.3053 31.3987C23.7844 29.8831 25.1685 28.4011 26.7161 28.8173L41.5281 32.8009C42.8454 33.1552 44.123 32.1158 44.0442 30.7539L43.1575 15.4413C43.0649 13.8414 44.7975 12.7877 46.1754 13.606L59.3633 21.4381C60.5362 22.1347 62.0469 21.4785 62.3384 20.1459L65.6159 5.16185C65.9583 3.59626 67.911 3.04916 69.017 4.2089L79.6028 15.3086C80.5443 16.2958 82.176 16.0715 82.8162 14.867L90.0148 1.32282Z" fill="white"/>
</svg>
