<svg width="96" height="96" viewBox="0 0 96 96" fill="none" xmlns="http://www.w3.org/2000/svg">
<path d="M46.2339 1.32282C46.9861 -0.0923171 49.0139 -0.0923187 49.7661 1.32282L52.1596 5.82627C52.7998 7.03083 54.4315 7.25511 55.373 6.26794L58.8928 2.57726C59.9988 1.41752 61.9515 1.96463 62.2939 3.53021L63.3837 8.51244C63.6752 9.84505 65.1859 10.5012 66.3587 9.80469L70.7438 7.2005C72.1217 6.38217 73.8543 7.4358 73.7617 9.03573L73.4668 14.1272C73.388 15.4891 74.6656 16.5285 75.9829 16.1742L80.9079 14.8496C82.4555 14.4334 83.8396 15.9154 83.3188 17.431L81.6612 22.2542C81.2179 23.5442 82.1677 24.8898 83.5317 24.9041L88.6315 24.9574C90.234 24.9742 91.1669 26.7746 90.2565 28.0935L87.3591 32.2906C86.5842 33.4132 87.1357 34.9652 88.4453 35.3469L93.3416 36.7741C94.8801 37.2226 95.2927 39.208 94.0602 40.2324L90.1379 43.4921C89.0888 44.364 89.2012 46.0072 90.3593 46.7281L94.6889 49.4234C96.0494 50.2704 95.911 52.2935 94.4478 52.9473L89.7915 55.0279C88.5461 55.5845 88.211 57.1971 89.1316 58.2037L92.5735 61.9672C93.6551 63.1498 92.976 65.0605 91.3907 65.2953L86.3457 66.0426C84.9963 66.2424 84.2385 67.7048 84.8534 68.9225L87.1523 73.475C87.8747 74.9056 86.7053 76.5622 85.1154 76.3606L80.0559 75.719C78.7026 75.5474 77.5784 76.7511 77.842 78.0896L78.8274 83.0935C79.137 84.6659 77.564 85.9456 76.0875 85.3226L71.3887 83.3397C70.1319 82.8094 68.7246 83.6651 68.6173 85.025L68.2161 90.1092C68.09 91.7069 66.2301 92.5148 64.9764 91.5164L60.9868 88.3394C59.9197 87.4896 58.3337 87.934 57.8635 89.2145L56.1055 94.0019C55.553 95.5063 53.5441 95.7824 52.6063 94.4829L49.6218 90.3473C48.8235 89.2412 47.1765 89.2412 46.3782 90.3473L43.3937 94.4829C42.4559 95.7824 40.447 95.5063 39.8945 94.0019L38.1365 89.2145C37.6663 87.934 36.0803 87.4896 35.0132 88.3394L31.0236 91.5164C29.7699 92.5148 27.91 91.7069 27.7839 90.1092L27.3827 85.025C27.2754 83.6651 25.8681 82.8094 24.6113 83.3397L19.9125 85.3226C18.436 85.9456 16.863 84.6659 17.1726 83.0935L18.158 78.0896C18.4216 76.7511 17.2974 75.5474 15.9441 75.719L10.8846 76.3606C9.29473 76.5622 8.12532 74.9055 8.8477 73.475L11.1466 68.9225C11.7615 67.7048 11.0037 66.2424 9.65431 66.0426L4.60933 65.2953C3.02403 65.0605 2.34495 63.1498 3.4265 61.9672L6.86838 58.2037C7.78899 57.1971 7.45389 55.5845 6.20845 55.0279L1.55216 52.9473C0.0889893 52.2935 -0.049396 50.2704 1.31112 49.4234L5.64073 46.7281C6.79879 46.0072 6.91119 44.364 5.86208 43.4921L1.9398 40.2324C0.707289 39.208 1.11986 37.2226 2.65843 36.7741L7.55467 35.3469C8.86429 34.9652 9.41585 33.4132 8.64088 32.2906L5.74352 28.0935C4.83307 26.7746 5.76601 24.9742 7.36852 24.9574L12.4683 24.9041C13.8323 24.8898 14.7821 23.5442 14.3388 22.2542L12.6812 17.431C12.1604 15.9154 13.5445 14.4334 15.0921 14.8496L20.0171 16.1742C21.3344 16.5285 22.612 15.4891 22.5332 14.1272L22.2383 9.03573C22.1457 7.43581 23.8783 6.38217 25.2562 7.2005L29.6413 9.80469C30.8141 10.5012 32.3248 9.84505 32.6163 8.51244L33.7061 3.53022C34.0485 1.96463 36.0012 1.41752 37.1072 2.57726L40.627 6.26794C41.5685 7.2551 43.2002 7.03083 43.8404 5.82628L46.2339 1.32282Z" fill="white"/>
</svg>
