<svg width="76" height="76" viewBox="0 0 76 76" fill="none" xmlns="http://www.w3.org/2000/svg">
<path d="M36.2339 1.32282C36.9861 -0.0923188 39.0139 -0.0923188 39.7661 1.32282L41.0675 3.77158C41.7078 4.97613 43.3395 5.20041 44.2809 4.21324L46.1948 2.20643C47.3009 1.04669 49.2535 1.5938 49.5959 3.15939L50.1885 5.86847C50.48 7.20109 51.9907 7.85727 53.1636 7.16072L55.5479 5.74469C56.9258 4.92637 58.6585 5.98 58.5658 7.57992L58.4055 10.3484C58.3267 11.7103 59.6043 12.7497 60.9216 12.3954L63.5996 11.6752C65.1472 11.259 66.5313 12.741 66.0104 14.2566L65.1091 16.8792C64.6658 18.1692 65.6156 19.5148 66.9796 19.5291L69.7526 19.5581C71.3551 19.5748 72.2881 21.3753 71.3776 22.6942L69.8022 24.9763C69.0272 26.0989 69.5788 27.6509 70.8884 28.0326L73.5507 28.8087C75.0893 29.2572 75.5019 31.2426 74.2694 32.2669L72.1366 34.0394C71.0875 34.9113 71.1999 36.5545 72.358 37.2754L74.7122 38.741C76.0727 39.588 75.9343 41.6111 74.4712 42.2649L71.9393 43.3962C70.6939 43.9527 70.3588 45.5653 71.2794 46.572L73.1509 48.6184C74.2324 49.801 73.5534 51.7117 71.9681 51.9465L69.2248 52.3528C67.8754 52.5527 67.1177 54.0151 67.7326 55.2328L68.9826 57.7082C69.705 59.1388 68.5356 60.7954 66.9457 60.5938L64.1946 60.245C62.8413 60.0733 61.7171 61.2771 61.9807 62.6155L62.5165 65.3364C62.8261 66.9088 61.2531 68.1885 59.7766 67.5654L57.2216 66.4873C55.9648 65.9569 54.5575 66.8127 54.4502 68.1726L54.2321 70.9371C54.106 72.5348 52.246 73.3427 50.9924 72.3443L48.8231 70.6168C47.7559 69.767 46.17 70.2114 45.6997 71.4919L44.7438 74.0951C44.1914 75.5995 42.1824 75.8756 41.2446 74.576L39.6218 72.3273C38.8235 71.2212 37.1765 71.2212 36.3782 72.3273L34.7554 74.576C33.8176 75.8756 31.8086 75.5995 31.2562 74.0951L30.3003 71.4919C29.83 70.2114 28.2441 69.767 27.1769 70.6168L25.0076 72.3443C23.754 73.3427 21.894 72.5348 21.7679 70.9371L21.5498 68.1726C21.4425 66.8127 20.0352 65.9569 18.7784 66.4873L16.2234 67.5654C14.7469 68.1885 13.1739 66.9088 13.4835 65.3364L14.0193 62.6155C14.2829 61.2771 13.1587 60.0733 11.8054 60.245L9.0543 60.5938C7.46443 60.7954 6.29502 59.1388 7.0174 57.7082L8.26742 55.2328C8.8823 54.0151 8.12455 52.5527 6.77516 52.3528L4.03194 51.9465C2.44664 51.7117 1.76756 49.801 2.84911 48.6184L4.72063 46.572C5.64125 45.5653 5.30614 43.9527 4.06071 43.3962L1.52884 42.2649C0.0656731 41.6111 -0.0727102 39.588 1.2878 38.741L3.64203 37.2754C4.80009 36.5545 4.91249 34.9113 3.86338 34.0394L1.73064 32.2669C0.498127 31.2426 0.910703 29.2572 2.44927 28.8087L5.11161 28.0326C6.42122 27.6509 6.97278 26.0989 6.19782 24.9763L4.62238 22.6942C3.71193 21.3753 4.64486 19.5748 6.24738 19.5581L9.02036 19.5291C10.3844 19.5148 11.3342 18.1692 10.8909 16.8792L9.98957 14.2566C9.46871 12.741 10.8528 11.259 12.4004 11.6752L15.0784 12.3954C16.3957 12.7497 17.6733 11.7103 17.5945 10.3484L17.4342 7.57992C17.3415 5.98 19.0742 4.92637 20.4521 5.74469L22.8364 7.16072C24.0093 7.85727 25.52 7.20109 25.8115 5.86847L26.4041 3.15939C26.7465 1.5938 28.6991 1.04669 29.8052 2.20643L31.7191 4.21324C32.6605 5.20041 34.2922 4.97613 34.9325 3.77158L36.2339 1.32282Z" fill="#FFEF76"/>
</svg>
